<svg width="30" height="36" viewBox="0 0 30 36" fill="none" xmlns="http://www.w3.org/2000/svg">
<g id="Apple logo">
<path d="M24.3534 19.1447C24.3888 16.3656 25.8665 13.7361 28.2108 12.2805C26.7319 10.1473 24.2548 8.79484 21.6777 8.7134C18.929 8.42201 16.2642 10.3746 14.8635 10.3746C13.4357 10.3746 11.2791 8.74233 8.95681 8.79059C5.92979 8.88936 3.10785 10.6275 1.63514 13.3003C-1.5306 18.8359 0.830757 26.9714 3.86327 31.446C5.3805 33.6371 7.15371 36.0846 9.47392 35.9978C11.7444 35.9026 12.5924 34.5355 15.333 34.5355C18.0482 34.5355 18.8438 35.9978 21.2111 35.9426C23.6474 35.9026 25.1824 33.7418 26.6464 31.5299C27.7365 29.9687 28.5753 28.2432 29.1318 26.4174C26.2687 25.1944 24.3567 22.2843 24.3534 19.1447Z" fill="white"/>
<path d="M19.8819 5.7707C21.2103 4.16014 21.8648 2.09003 21.7063 0C19.6768 0.215281 17.8022 1.1949 16.4558 2.74367C15.1393 4.2569 14.4542 6.29058 14.5837 8.30073C16.6139 8.32184 18.6098 7.36878 19.8819 5.7707Z" fill="white"/>
</g>
</svg>
