<svg width="108" height="60" viewBox="0 0 108 60" fill="none" xmlns="http://www.w3.org/2000/svg">
<g id="logo 3">
<path id="Vector" d="M2.10034 44.459V15.3681H14.714C16.9299 15.3681 18.7907 15.6664 20.2964 16.263C21.8115 16.8596 22.9526 17.7024 23.7197 18.7914C24.4962 19.8804 24.8844 21.1635 24.8844 22.6408C24.8844 23.7109 24.6477 24.6863 24.1742 25.5669C23.7102 26.4476 23.0568 27.1863 22.214 27.7828C21.3712 28.3701 20.3863 28.7771 19.2594 29.0044V29.2884C20.5094 29.336 21.6458 29.653 22.6685 30.2403C23.6912 30.8179 24.5056 31.6182 25.1117 32.6409C25.7178 33.6541 26.0208 34.8474 26.0208 36.2203C26.0208 37.8111 25.6041 39.2271 24.7708 40.4676C23.9469 41.7079 22.7727 42.6833 21.2481 43.3936C19.7235 44.1038 17.9053 44.459 15.7935 44.459H2.10034ZM9.99808 38.1522H13.6913C15.017 38.1522 16.0113 37.906 16.6742 37.4136C17.3371 36.9117 17.6685 36.173 17.6685 35.1976C17.6685 34.5157 17.5123 33.9382 17.1998 33.4647C16.8873 32.9911 16.4422 32.6314 15.8645 32.3852C15.2964 32.139 14.6098 32.0157 13.8049 32.0157H9.99808V38.1522ZM9.99808 27.1295H13.2367C13.928 27.1295 14.5388 27.0205 15.0691 26.8027C15.5994 26.5849 16.0113 26.2724 16.3049 25.8652C16.6079 25.4486 16.7594 24.9419 16.7594 24.3453C16.7594 23.4457 16.4375 22.7592 15.7935 22.2857C15.1496 21.8027 14.3352 21.5613 13.3503 21.5613H9.99808V27.1295ZM28.9326 44.459V22.6408H36.7737V44.459H28.9326ZM32.8532 20.3681C31.7926 20.3681 30.8835 20.0177 30.1259 19.3169C29.3683 18.6162 28.9897 17.7734 28.9897 16.7885C28.9897 15.8037 29.3683 14.9609 30.1259 14.2601C30.8835 13.5594 31.7926 13.209 32.8532 13.209C33.9232 13.209 34.8324 13.5594 35.5805 14.2601C36.3381 14.9609 36.7167 15.8037 36.7167 16.7885C36.7167 17.7734 36.3381 18.6162 35.5805 19.3169C34.8324 20.0177 33.9232 20.3681 32.8532 20.3681ZM48.6097 32.1863V44.459H40.7686V22.6408H48.2118V26.7885H48.4391C48.9126 25.406 49.7459 24.3217 50.9391 23.5357C52.1418 22.7497 53.5432 22.3567 55.1437 22.3567C56.6872 22.3567 58.0272 22.7118 59.1635 23.422C60.3094 24.1228 61.1948 25.0887 61.8197 26.3198C62.4543 27.5509 62.7667 28.9571 62.7572 30.5384V44.459H54.9164V32.1863C54.9259 31.1068 54.6513 30.2593 54.0926 29.6436C53.5432 29.0282 52.7762 28.7203 51.7913 28.7203C51.1475 28.7203 50.584 28.8625 50.101 29.1466C49.6275 29.4211 49.2629 29.8187 49.0072 30.3398C48.7516 30.8511 48.6191 31.4666 48.6097 32.1863Z" fill="white"/>
<path id="Vector_2" d="M70.2224 22.2295L69.5619 22.0876L69.3862 22.9052H70.2224V22.2295ZM71.2624 17.3895V16.7139H70.7165L70.6019 17.2476L71.2624 17.3895ZM78.2624 17.3895L78.923 17.5315L79.0986 16.7139H78.2624V17.3895ZM77.2224 22.2295V22.9052H77.7684L77.8829 22.3715L77.2224 22.2295ZM66.1024 44.1895L65.4413 44.0498L65.2692 44.8652H66.1024V44.1895ZM69.1024 29.9895L69.7635 30.1293L69.9356 29.3139H69.1024V29.9895ZM66.3024 29.9895L65.6602 29.779L65.37 30.6652H66.3024V29.9895ZM67.8624 25.2295V24.5539H67.3729L67.2202 25.0191L67.8624 25.2295ZM76.5424 25.2295L77.2035 25.369L77.3757 24.5539H76.5424V25.2295ZM72.5424 44.1895V44.8652H73.0905L73.2035 44.329L72.5424 44.1895ZM70.8829 22.3715L71.9229 17.5315L70.6019 17.2476L69.5619 22.0876L70.8829 22.3715ZM71.2624 18.0652H78.2624V16.7139H71.2624V18.0652ZM77.6019 17.2476L76.5619 22.0876L77.8829 22.3715L78.923 17.5315L77.6019 17.2476ZM77.2224 21.5539H70.2224V22.9052H77.2224V21.5539ZM66.7635 44.3293L69.7635 30.1293L68.4413 29.8498L65.4413 44.0498L66.7635 44.3293ZM69.1024 29.3139H66.3024V30.6652H69.1024V29.3139ZM66.9446 30.2001L68.5046 25.44L67.2202 25.0191L65.6602 29.779L66.9446 30.2001ZM67.8624 25.9052H76.5424V24.5539H67.8624V25.9052ZM75.8813 25.0901L71.8813 44.0501L73.2035 44.329L77.2035 25.369L75.8813 25.0901ZM72.5424 43.5139H66.1024V44.8652H72.5424V43.5139ZM78.9662 37.8295L78.3054 37.6893L78.3046 37.6922L78.304 37.6955L78.9662 37.8295ZM80.6062 30.1095L81.267 30.2498L81.4405 29.4339H80.6062V30.1095ZM78.0462 30.1095L77.3854 29.9687L77.2113 30.7852H78.0462V30.1095ZM79.0862 25.2295V24.5539H78.5394L78.4254 25.0887L79.0862 25.2295ZM81.6462 25.2295V25.9052H82.1935L82.3073 25.3698L81.6462 25.2295ZM82.4862 21.2695L82.3205 20.6145L81.9124 20.7177L81.8251 21.1293L82.4862 21.2695ZM89.2862 19.5495L89.9473 19.6892L90.1713 18.6287L89.1205 18.8945L89.2862 19.5495ZM88.0862 25.2295L87.4251 25.0899L87.2529 25.9052H88.0862V25.2295ZM92.6862 25.2295L93.3384 25.406L93.5689 24.5539H92.6862V25.2295ZM91.3662 30.1095V30.7852H91.8835L92.0183 30.286L91.3662 30.1095ZM87.0462 30.1095V29.4339H86.497L86.3848 29.9714L87.0462 30.1095ZM85.5262 37.3895L84.8648 37.2514L84.8643 37.2533L85.5262 37.3895ZM85.6062 39.3095L85.0378 39.675L85.0532 39.699L85.0705 39.7214L85.6062 39.3095ZM90.1662 39.4295L90.8273 39.569L91.063 38.4517L89.9702 38.7828L90.1662 39.4295ZM89.2462 43.7895L89.4929 44.4185L89.8321 44.2855L89.9073 43.929L89.2462 43.7895ZM84.3662 43.9139C82.3224 43.9139 81.0173 43.349 80.2594 42.3747L79.1929 43.2044C80.3019 44.6301 82.09 45.2652 84.3662 45.2652V43.9139ZM80.2594 42.3747C79.4908 41.3863 79.224 39.9601 79.6284 37.9636L78.304 37.6955C77.8548 39.9122 78.0948 41.7928 79.1929 43.2044L80.2594 42.3747ZM79.627 37.9698L81.267 30.2498L79.9454 29.9693L78.3054 37.6893L79.627 37.9698ZM80.6062 29.4339H78.0462V30.7852H80.6062V29.4339ZM78.707 30.2504L79.747 25.3704L78.4254 25.0887L77.3854 29.9687L78.707 30.2504ZM79.0862 25.9052H81.6462V24.5539H79.0862V25.9052ZM82.3073 25.3698L83.1473 21.4098L81.8251 21.1293L80.9851 25.0893L82.3073 25.3698ZM82.6519 21.9246L89.4519 20.2046L89.1205 18.8945L82.3205 20.6145L82.6519 21.9246ZM88.6251 19.4099L87.4251 25.0899L88.7473 25.3692L89.9473 19.6892L88.6251 19.4099ZM88.0862 25.9052H92.6862V24.5539H88.0862V25.9052ZM92.034 25.0531L90.714 29.9331L92.0183 30.286L93.3384 25.406L92.034 25.0531ZM91.3662 29.4339H87.0462V30.7852H91.3662V29.4339ZM86.3848 29.9714L84.8648 37.2514L86.1875 37.5277L87.7075 30.2477L86.3848 29.9714ZM84.8643 37.2533C84.7643 37.739 84.7146 38.1841 84.7311 38.5777C84.7473 38.9677 84.8302 39.3522 85.0378 39.675L86.1746 38.9441C86.1419 38.8936 86.0916 38.7714 86.0813 38.5214C86.0711 38.275 86.1013 37.9468 86.1881 37.5258L84.8643 37.2533ZM85.0705 39.7214C85.3348 40.0652 85.7357 40.2493 86.1362 40.3536C86.5467 40.4601 87.0432 40.5052 87.6062 40.5052V39.1539C87.1027 39.1539 86.7324 39.1122 86.4762 39.0455C86.21 38.9763 86.144 38.9006 86.1419 38.8977L85.0705 39.7214ZM87.6062 40.5052C88.5062 40.5052 89.4256 40.3601 90.3621 40.0763L89.9702 38.7828C89.1467 39.0325 88.3594 39.1539 87.6062 39.1539V40.5052ZM89.5051 39.2901L88.5851 43.6501L89.9073 43.929L90.8273 39.569L89.5051 39.2901ZM88.9994 43.1606C87.7375 43.6555 86.1989 43.9139 84.3662 43.9139V45.2652C86.3202 45.2652 88.0348 44.9904 89.4929 44.4185L88.9994 43.1606ZM93.5662 37.1495L92.9024 37.0231L92.7494 37.8252H93.5662V37.1495ZM95.8462 25.1895L95.1854 25.0488L95.1838 25.0559L95.1824 25.063L95.8462 25.1895ZM97.2862 18.4295V17.7539H96.7392L96.6254 18.2888L97.2862 18.4295ZM103.726 18.4295L104.387 18.5703L104.561 17.7539H103.726V18.4295ZM102.286 25.1895L102.945 25.3415L102.946 25.3359L102.947 25.3303L102.286 25.1895ZM99.5262 37.1495V37.8252H100.064L100.185 37.3014L99.5262 37.1495ZM91.6862 44.1895L91.0246 44.0525L90.8565 44.8652H91.6862V44.1895ZM92.6462 39.5495V38.8739H92.0959L91.9846 39.4125L92.6462 39.5495ZM99.4062 39.5495L100.068 39.6866L100.236 38.8739H99.4062V39.5495ZM98.4462 44.1895V44.8652H98.9965L99.1078 44.3266L98.4462 44.1895ZM94.23 37.276L96.51 25.3161L95.1824 25.063L92.9024 37.0231L94.23 37.276ZM96.507 25.3303L97.947 18.5703L96.6254 18.2888L95.1854 25.0488L96.507 25.3303ZM97.2862 19.1052H103.726V17.7539H97.2862V19.1052ZM103.065 18.2888L101.625 25.0488L102.947 25.3303L104.387 18.5703L103.065 18.2888ZM101.628 25.0376L98.8678 36.9977L100.185 37.3014L102.945 25.3415L101.628 25.0376ZM99.5262 36.4739H93.5662V37.8252H99.5262V36.4739ZM92.3478 44.3266L93.3078 39.6866L91.9846 39.4125L91.0246 44.0525L92.3478 44.3266ZM92.6462 40.2252H99.4062V38.8739H92.6462V40.2252ZM98.7446 39.4125L97.7846 44.0525L99.1078 44.3266L100.068 39.6866L98.7446 39.4125ZM98.4462 43.5139H91.6862V44.8652H98.4462V43.5139Z" fill="white"/>
</g>
</svg>
