<svg width="20" height="24" viewBox="0 0 20 24" fill="none" xmlns="http://www.w3.org/2000/svg">
<g id="Apple logo">
<path d="M16.1477 12.7631C16.1713 10.9104 17.1565 9.15738 18.7193 8.18699C17.7334 6.76488 16.082 5.86322 14.3639 5.80893C12.5314 5.61467 10.7549 6.91639 9.82112 6.91639C8.86925 6.91639 7.43151 5.82822 5.88331 5.86039C3.8653 5.92624 1.98401 7.08501 1.0022 8.86687C-1.10829 12.5573 0.465948 17.9809 2.48762 20.964C3.49911 22.4247 4.68125 24.0564 6.22805 23.9985C7.74169 23.9351 8.30701 23.0237 10.1341 23.0237C11.9442 23.0237 12.4746 23.9985 14.0528 23.9617C15.677 23.9351 16.7003 22.4945 17.6763 21.02C18.4031 19.9792 18.9623 18.8288 19.3333 17.6116C17.4246 16.7962 16.1499 14.8562 16.1477 12.7631Z" fill="white"/>
<path d="M13.1667 3.84713C14.0523 2.77343 14.4886 1.39335 14.383 0C13.03 0.143521 11.7802 0.796601 10.8827 1.82911C10.005 2.83793 9.54823 4.19372 9.63459 5.53382C10.988 5.54789 12.3186 4.91252 13.1667 3.84713Z" fill="white"/>
</g>
</svg>
