<svg width="103" height="18" viewBox="0 0 103 18" fill="none" xmlns="http://www.w3.org/2000/svg">
<g id="logo whale scale 1">
<path id="Vector" d="M20.0386 14.2759L16.9882 3.44206H19.4505L21.2151 10.9697H21.3036L23.2504 3.44206H25.3587L27.3003 10.9856H27.394L29.1587 3.44206H31.6209L28.5705 14.2759H26.3737L24.3436 7.19267H24.2603L22.2354 14.2759H20.0386ZM35.0031 9.57842V14.2759H32.7856V3.44206H34.9407V7.58414H35.0344C35.2148 7.10447 35.5063 6.72889 35.9089 6.45734C36.3115 6.18227 36.8164 6.04473 37.4237 6.04473C37.979 6.04473 38.4631 6.16816 38.876 6.41501C39.2925 6.65838 39.6152 7.00926 39.8443 7.4677C40.0768 7.92266 40.1913 8.46751 40.1878 9.10235V14.2759H37.9703V9.50437C37.9738 9.0036 37.8488 8.61386 37.5955 8.3353C37.3456 8.05667 36.9951 7.91739 36.544 7.91739C36.242 7.91739 35.9748 7.98262 35.7424 8.11309C35.5133 8.24356 35.3328 8.43405 35.201 8.68444C35.0726 8.93128 35.0066 9.22928 35.0031 9.57842ZM44.213 14.4294C43.7028 14.4294 43.2482 14.3394 42.8491 14.1595C42.45 13.9761 42.1343 13.7064 41.9018 13.3502C41.6727 12.9905 41.5582 12.5426 41.5582 12.0066C41.5582 11.5551 41.6397 11.176 41.8028 10.8692C41.9659 10.5623 42.188 10.3155 42.4692 10.1286C42.7502 9.94164 43.0695 9.80062 43.4269 9.70541C43.7878 9.6102 44.1661 9.54316 44.5617 9.50437C45.0268 9.45502 45.4016 9.40915 45.6861 9.36682C45.9707 9.32095 46.1772 9.25398 46.3056 9.16578C46.434 9.07764 46.4982 8.94718 46.4982 8.77437V8.7426C46.4982 8.40761 46.3941 8.14835 46.1859 7.965C45.9811 7.78158 45.6896 7.68991 45.3114 7.68991C44.9123 7.68991 44.5947 7.77984 44.3587 7.95972C44.1227 8.13606 43.9666 8.3582 43.8903 8.62622L41.8393 8.45695C41.9434 7.9632 42.1481 7.53647 42.4535 7.17678C42.7589 6.81355 43.1528 6.53493 43.6351 6.34096C44.121 6.14348 44.6832 6.04473 45.3217 6.04473C45.766 6.04473 46.1911 6.09763 46.5971 6.20343C47.0066 6.30924 47.3693 6.47323 47.685 6.69537C48.0043 6.91758 48.2559 7.20322 48.4398 7.55236C48.6238 7.89796 48.7157 8.31233 48.7157 8.79554V14.2759H46.6127V13.1492H46.5503C46.4218 13.4031 46.2501 13.627 46.0349 13.821C45.8198 14.0114 45.5612 14.1613 45.2593 14.2706C44.9574 14.3764 44.6086 14.4294 44.213 14.4294ZM44.848 12.8741C45.1742 12.8741 45.4623 12.8089 45.7122 12.6783C45.962 12.5443 46.1581 12.3645 46.3004 12.1388C46.4426 11.9131 46.5138 11.6574 46.5138 11.3717V10.5095C46.4444 10.5553 46.3489 10.5977 46.2275 10.6364C46.1095 10.6717 45.9759 10.7052 45.8267 10.7369C45.6775 10.7651 45.5282 10.7916 45.379 10.8163C45.2298 10.8374 45.0945 10.8569 44.973 10.8745C44.7127 10.9133 44.4854 10.975 44.2911 11.0596C44.0967 11.1442 43.9458 11.2589 43.8382 11.4035C43.7306 11.5445 43.6768 11.7208 43.6768 11.9324C43.6768 12.2393 43.7861 12.4738 44.0048 12.6361C44.2269 12.7947 44.5079 12.8741 44.848 12.8741ZM52.6537 3.44206V14.2759H50.4362V3.44206H52.6537ZM58.0739 14.4346C57.2515 14.4346 56.5435 14.2654 55.9501 13.9268C55.3601 13.5847 54.9055 13.1016 54.5862 12.4773C54.267 11.8496 54.1073 11.1072 54.1073 10.2503C54.1073 9.41443 54.267 8.6809 54.5862 8.04966C54.9055 7.41835 55.3549 6.9264 55.9344 6.57372C56.5175 6.22104 57.2011 6.04473 57.9854 6.04473C58.5129 6.04473 59.004 6.13113 59.4586 6.30391C59.9167 6.47323 60.3157 6.72889 60.6558 7.07095C60.9994 7.41308 61.2666 7.84334 61.4575 8.36174C61.6481 8.8766 61.744 9.47966 61.744 10.1709V10.7898H54.9923V9.39326H59.6564C59.6564 9.06883 59.587 8.78139 59.4482 8.531C59.3094 8.28062 59.1167 8.08491 58.8703 7.94383C58.6274 7.79921 58.3446 7.72696 58.0218 7.72696C57.6852 7.72696 57.3868 7.80628 57.1265 7.965C56.8697 8.12017 56.6684 8.33002 56.5227 8.5945C56.3769 8.85544 56.3023 9.14642 56.2988 9.46731V10.7951C56.2988 11.1972 56.3717 11.5445 56.5175 11.8372C56.6667 12.1299 56.8766 12.3556 57.1473 12.5143C57.418 12.6731 57.739 12.7524 58.1103 12.7524C58.3567 12.7524 58.5823 12.7171 58.7871 12.6466C58.9918 12.5761 59.167 12.4703 59.3128 12.3292C59.4586 12.1882 59.5696 12.0154 59.646 11.8108L61.697 11.9483C61.5931 12.4491 61.3794 12.8864 61.0567 13.2602C60.7374 13.6305 60.3244 13.9197 59.8178 14.1278C59.3146 14.3323 58.7333 14.4346 58.0739 14.4346ZM69.0159 6.55783C68.9744 6.13113 68.7954 5.79963 68.4796 5.56334C68.1639 5.32706 67.7351 5.20891 67.194 5.20891C66.8263 5.20891 66.5154 5.26181 66.2619 5.36761C66.009 5.46988 65.8142 5.61271 65.6792 5.7961C65.5473 5.97948 65.4813 6.18756 65.4813 6.42035C65.4746 6.61425 65.5143 6.78357 65.601 6.92813C65.6914 7.07275 65.8142 7.19795 65.9706 7.30371C66.1269 7.406 66.3071 7.49594 66.5123 7.57353C66.7169 7.64757 66.9356 7.71107 67.1677 7.76395L68.126 7.99671C68.5908 8.10254 69.0177 8.24356 69.4062 8.4199C69.7953 8.59624 70.1318 8.81317 70.4164 9.07057C70.7004 9.32803 70.9209 9.6313 71.0773 9.98044C71.2367 10.3296 71.3185 10.7299 71.3222 11.1813C71.3185 11.8443 71.1518 12.4191 70.822 12.9058C70.4958 13.389 70.0243 13.7645 69.4062 14.0326C68.7918 14.2971 68.0509 14.4294 67.1836 14.4294C66.323 14.4294 65.5736 14.2953 64.9347 14.0273C64.2995 13.7593 63.8035 13.3625 63.4462 12.837C63.092 12.308 62.9063 11.6539 62.8892 10.8745H65.0703C65.0941 11.2377 65.1967 11.541 65.3775 11.7843C65.5613 12.0242 65.8057 12.2058 66.111 12.3292C66.4201 12.4491 66.7689 12.5091 67.1573 12.5091C67.5391 12.5091 67.8707 12.4526 68.1517 12.3398C68.4363 12.227 68.6568 12.07 68.8131 11.869C68.9689 11.668 69.0471 11.4369 69.0471 11.176C69.0471 10.9326 68.9762 10.7281 68.8339 10.5623C68.6946 10.3966 68.49 10.2555 68.2195 10.1391C67.9519 10.0228 67.6246 9.917 67.2355 9.82179L66.075 9.52553C65.1759 9.30333 64.4662 8.95599 63.9458 8.4834C63.4255 8.0108 63.1665 7.37429 63.1702 6.57372C63.1665 5.91777 63.3381 5.34469 63.6856 4.85448C64.0362 4.36428 64.5163 3.98164 65.1271 3.70656C65.7379 3.43148 66.4323 3.29395 67.2098 3.29395C68.0008 3.29395 68.6916 3.43148 69.2816 3.70656C69.8747 3.98164 70.3364 4.36428 70.6662 4.85448C70.9954 5.34469 71.1658 5.91248 71.1762 6.55783H69.0159ZM76.4088 14.4346C75.5897 14.4346 74.8855 14.2583 74.2955 13.9056C73.7091 13.5494 73.2578 13.0557 72.942 12.4244C72.6299 11.7932 72.4735 11.0666 72.4735 10.245C72.4735 9.41269 72.6317 8.68264 72.9475 8.05493C73.2663 7.42363 73.7195 6.93167 74.3059 6.57899C74.8922 6.22284 75.5897 6.04473 76.3984 6.04473C77.0959 6.04473 77.7067 6.17345 78.2307 6.4309C78.7548 6.68836 79.1695 7.04985 79.4749 7.51537C79.7803 7.98089 79.9488 8.52746 79.98 9.15523H77.8875C77.8282 8.74967 77.6725 8.42344 77.419 8.17659C77.1692 7.9262 76.8412 7.80101 76.435 7.80101C76.0912 7.80101 75.7913 7.89622 75.5347 8.08665C75.2813 8.27354 75.0834 8.54689 74.9411 8.90658C74.7988 9.26633 74.7273 9.70187 74.7273 10.2132C74.7273 10.7317 74.7969 11.1725 74.9356 11.5357C75.0779 11.899 75.2776 12.1758 75.5347 12.3662C75.7913 12.5567 76.0912 12.6519 76.435 12.6519C76.6885 12.6519 76.9157 12.599 77.1167 12.4932C77.3219 12.3874 77.4898 12.234 77.6218 12.033C77.7574 11.8284 77.8459 11.5833 77.8875 11.2977H79.98C79.9452 11.9184 79.7784 12.465 79.4804 12.9376C79.1854 13.4066 78.7774 13.7733 78.257 14.0379C77.7366 14.3024 77.1203 14.4346 76.4088 14.4346ZM83.6795 14.4294C83.1695 14.4294 82.7151 14.3394 82.3162 14.1595C81.9168 13.9761 81.601 13.7064 81.3683 13.3502C81.1392 12.9905 81.025 12.5426 81.025 12.0066C81.025 11.5551 81.1063 11.176 81.2693 10.8692C81.4324 10.5623 81.6547 10.3155 81.9357 10.1286C82.2173 9.94164 82.5361 9.80062 82.894 9.70541C83.2544 9.6102 83.6331 9.54316 84.0282 9.50437C84.4937 9.45502 84.8681 9.40915 85.1527 9.36682C85.4373 9.32095 85.6437 9.25398 85.7726 9.16578C85.9009 9.07764 85.965 8.94718 85.965 8.77437V8.7426C85.965 8.40761 85.8606 8.14835 85.6529 7.965C85.4477 7.78158 85.1563 7.68991 84.7783 7.68991C84.3788 7.68991 84.0612 7.77984 83.8255 7.95972C83.5897 8.13606 83.4333 8.3582 83.357 8.62622L81.306 8.45695C81.4104 7.9632 81.6151 7.53647 81.9204 7.17678C82.2258 6.81355 82.6198 6.53493 83.1017 6.34096C83.5879 6.14348 84.1498 6.04473 84.7887 6.04473C85.2327 6.04473 85.6578 6.09763 86.064 6.20343C86.4732 6.30924 86.836 6.47323 87.1518 6.69537C87.4712 6.91758 87.7228 7.20322 87.9067 7.55236C88.0905 7.89796 88.1828 8.31233 88.1828 8.79554V14.2759H86.0792V13.1492H86.0169C85.8887 13.4031 85.717 13.627 85.5014 13.821C85.2864 14.0114 85.0281 14.1613 84.7263 14.2706C84.424 14.3764 84.0753 14.4294 83.6795 14.4294ZM84.3147 12.8741C84.6408 12.8741 84.9291 12.8089 85.1789 12.6783C85.4287 12.5443 85.6248 12.3645 85.7671 12.1388C85.9094 11.9131 85.9809 11.6574 85.9809 11.3717V10.5095C85.9113 10.5553 85.816 10.5977 85.6944 10.6364C85.5766 10.6717 85.4428 10.7052 85.2938 10.7369C85.1441 10.7651 84.9951 10.7916 84.8461 10.8163C84.6964 10.8374 84.5614 10.8569 84.4399 10.8745C84.1797 10.9133 83.9519 10.975 83.7577 11.0596C83.5634 11.1442 83.4126 11.2589 83.3051 11.4035C83.1976 11.5445 83.1438 11.7208 83.1438 11.9324C83.1438 12.2393 83.2532 12.4738 83.4718 12.6361C83.6935 12.7947 83.9745 12.8741 84.3147 12.8741ZM92.1204 3.44206V14.2759H89.9027V3.44206H92.1204ZM97.5405 14.4346C96.7184 14.4346 96.0105 14.2654 95.4168 13.9268C94.8268 13.5847 94.3724 13.1016 94.0529 12.4773C93.7335 11.8496 93.5741 11.1072 93.5741 10.2503C93.5741 9.41443 93.7335 8.6809 94.0529 8.04966C94.3724 7.41835 94.8219 6.9264 95.4015 6.57372C95.9842 6.22104 96.6677 6.04473 97.4519 6.04473C97.9796 6.04473 98.4707 6.13113 98.9251 6.30391C99.3832 6.47323 99.7827 6.72889 100.123 7.07095C100.466 7.41308 100.734 7.84334 100.924 8.36174C101.115 8.8766 101.211 9.47966 101.211 10.1709V10.7898H94.4591V9.39326H99.123C99.123 9.06883 99.054 8.78139 98.9147 8.531C98.7761 8.28062 98.5837 8.08491 98.3369 7.94383C98.0945 7.79921 97.8117 7.72696 97.4886 7.72696C97.152 7.72696 96.8533 7.80628 96.5932 7.965C96.3366 8.12017 96.1351 8.33002 95.9897 8.5945C95.8438 8.85544 95.7692 9.14642 95.7656 9.46731V10.7951C95.7656 11.1972 95.8382 11.5445 95.9842 11.8372C96.1333 12.1299 96.3434 12.3556 96.6139 12.5143C96.8845 12.6731 97.2058 12.7524 97.5771 12.7524C97.8233 12.7524 98.0493 12.7171 98.2539 12.6466C98.4585 12.5761 98.6338 12.4703 98.7798 12.3292C98.9251 12.1882 99.0363 12.0154 99.1126 11.8108L101.164 11.9483C101.06 12.4491 100.846 12.8864 100.524 13.2602C100.204 13.6305 99.7912 13.9197 99.2843 14.1278C98.7816 14.3323 98.2001 14.4346 97.5405 14.4346Z" fill="white"/>
<path id="Vector_2" d="M2.04026 0.902153L1.16373 0.636491C1.13841 0.62882 1.11349 0.649606 1.11595 0.676346C1.18157 1.38686 1.52613 2.04053 2.07181 2.4897L2.3965 2.75697C2.42549 2.78083 2.45694 2.80141 2.4903 2.81836L3.73304 3.44982C3.93725 3.55358 4.03936 3.60546 4.14388 3.65167C4.23296 3.69105 4.32335 3.72734 4.41486 3.76047C4.52223 3.79933 4.63165 3.83238 4.85048 3.89847L7.28393 4.63339C7.35753 4.65561 7.3943 4.66672 7.42899 4.68215C7.47516 4.70272 7.51871 4.72902 7.5586 4.76047C7.58846 4.78406 7.61564 4.8116 7.66994 4.86666C7.79124 4.98964 7.85201 5.05113 7.89233 5.12194C7.94601 5.21628 7.97435 5.32333 7.97448 5.43232C7.97454 5.51413 7.95237 5.59825 7.90814 5.7665L7.32632 7.97767L6.42813 11.6191L5.73624 14.7747C5.72703 14.8167 5.72242 14.8377 5.7279 14.8542C5.73252 14.868 5.74177 14.8797 5.75404 14.8873C5.76866 14.8963 5.78984 14.8963 5.83223 14.8963H12.0401C12.0867 14.8963 12.1099 14.8963 12.1251 14.8863C12.1379 14.8778 12.1471 14.8648 12.1509 14.8499C12.1555 14.8321 12.1481 14.8096 12.1333 14.7647L11.0988 11.6191L10.2006 7.97767L9.61753 5.76173C9.57447 5.59813 9.55297 5.51633 9.55248 5.43679C9.55175 5.32477 9.58095 5.21464 9.63683 5.11808C9.67653 5.04953 9.73553 4.98974 9.85347 4.87015C9.9079 4.81501 9.93514 4.78742 9.96506 4.7638C10.0072 4.73054 10.0535 4.70305 10.1027 4.68201C10.1376 4.66707 10.1746 4.65649 10.2486 4.63532L12.8054 3.90378C13.0434 3.83569 13.1624 3.80164 13.279 3.76075C13.3785 3.72589 13.4766 3.68733 13.5732 3.64512C13.6866 3.5956 13.7971 3.53943 14.0183 3.42707L15.222 2.81545C15.2515 2.80043 15.2794 2.7822 15.3051 2.76106L15.6287 2.49467C16.1723 2.04725 16.4881 1.3744 16.4881 0.663566C16.4881 0.641662 16.4678 0.625592 16.4469 0.630905L15.338 0.912624C15.311 0.919507 15.2974 0.922946 15.2837 0.925751C15.2721 0.928141 15.2604 0.930183 15.2486 0.931884C15.2348 0.93387 15.2209 0.935223 15.1931 0.937923L11.2937 1.31695C11.1623 1.32973 11.0966 1.33611 11.0326 1.34513C10.4978 1.42043 9.99212 1.63847 9.56726 1.97704C9.51645 2.01756 9.46624 2.06115 9.36589 2.14833C9.31721 2.19063 9.29284 2.21178 9.26957 2.22848C9.0704 2.37114 8.80684 2.37986 8.599 2.25066C8.57463 2.23554 8.54897 2.21605 8.49767 2.17705L8.42444 2.12138C8.20083 1.95137 8.089 1.86636 7.97209 1.79315C7.64832 1.59037 7.29016 1.45082 6.916 1.38169C6.78089 1.35673 6.64176 1.34398 6.36361 1.31848L2.23295 0.939791C2.19578 0.936384 2.17719 0.934683 2.15878 0.93184C2.14309 0.929413 2.12749 0.926366 2.11203 0.922704C2.0939 0.918415 2.07602 0.91299 2.04026 0.902153Z" fill="white" stroke="white" stroke-width="0.1"/>
</g>
</svg>
