<svg width="23" height="24" viewBox="0 0 23 24" fill="none" xmlns="http://www.w3.org/2000/svg">
<g id="Google Play logo">
<path id="Subtract" fill-rule="evenodd" clip-rule="evenodd" d="M0.717456 0.804006C0.616372 1.04727 0.560791 1.3416 0.560791 1.68151V22.3179C0.560791 22.6586 0.616453 22.953 0.717676 23.1962L11.9129 11.9994L0.717456 0.804006ZM1.41366 23.9145C1.82537 24.0758 2.3553 24.0137 2.93179 23.6868L16.1111 16.1976L12.62 12.7065L1.41366 23.9145ZM17.0135 15.6858L21.1281 13.348C22.4317 12.6062 22.4317 11.3941 21.1281 10.6533L17.0117 8.31418L13.327 11.9994L17.0135 15.6858ZM16.1099 7.80177L2.93179 0.313592C2.35522 -0.0140511 1.82522 -0.0758683 1.41348 0.0858199L12.6199 11.2923L16.1099 7.80177Z" fill="white"/>
</g>
</svg>
