<svg width="36" height="36" viewBox="0 0 36 36" fill="none" xmlns="http://www.w3.org/2000/svg">
<g id="ion:game-controller-outline">
<path id="Vector" d="M32.8718 17.496C31.5781 11.6474 29.6592 7.91658 26.5838 7.00744C25.9881 6.83368 25.3705 6.747 24.75 6.75009C22.8593 6.75009 21.3673 7.87509 18 7.87509C14.6327 7.87509 13.1379 6.75009 11.25 6.75009C10.6037 6.74675 9.95998 6.83336 9.33751 7.00744C6.25782 7.91658 4.35516 11.6509 3.04665 17.496C1.71071 23.4662 1.95258 28.1835 4.56399 29.0891C6.39211 29.7219 8.02688 28.4134 9.57516 26.4875C11.333 24.2938 13.4979 23.6188 18 23.6188C22.5021 23.6188 24.5827 24.2938 26.3433 26.4875C27.8902 28.4148 29.5854 29.7071 31.365 29.1003C34.2492 28.1153 34.2084 23.5365 32.8718 17.496Z" stroke="#FB5607" stroke-width="2.25" stroke-miterlimit="10"/>
<path id="Vector_2" d="M20.5312 17.1562C21.3079 17.1562 21.9375 16.5267 21.9375 15.75C21.9375 14.9733 21.3079 14.3438 20.5312 14.3438C19.7546 14.3438 19.125 14.9733 19.125 15.75C19.125 16.5267 19.7546 17.1562 20.5312 17.1562Z" fill="#FB5607"/>
<path id="Vector_3" d="M23.625 20.25C23.3467 20.25 23.0747 20.1674 22.8434 20.0128C22.612 19.8581 22.4318 19.6382 22.3255 19.3811C22.2191 19.1239 22.1915 18.841 22.246 18.5681C22.3006 18.2952 22.4349 18.0447 22.6319 17.8481C22.8289 17.6516 23.0798 17.518 23.3528 17.4641C23.6258 17.4102 23.9087 17.4386 24.1656 17.5456C24.4225 17.6525 24.6419 17.8333 24.796 18.065C24.9501 18.2968 25.0319 18.569 25.0312 18.8473C25.0303 19.2196 24.8817 19.5764 24.6181 19.8394C24.3545 20.1023 23.9973 20.25 23.625 20.25Z" fill="#FB5607"/>
<path id="Vector_4" d="M23.625 14.0625C24.4017 14.0625 25.0312 13.4329 25.0312 12.6562C25.0312 11.8796 24.4017 11.25 23.625 11.25C22.8483 11.25 22.2188 11.8796 22.2188 12.6562C22.2188 13.4329 22.8483 14.0625 23.625 14.0625Z" fill="#FB5607"/>
<path id="Vector_5" d="M26.7188 17.1562C27.4954 17.1562 28.125 16.5267 28.125 15.75C28.125 14.9733 27.4954 14.3438 26.7188 14.3438C25.9421 14.3438 25.3125 14.9733 25.3125 15.75C25.3125 16.5267 25.9421 17.1562 26.7188 17.1562Z" fill="#FB5607"/>
<path id="Vector_6" d="M11.25 12.375V19.125M14.625 15.75H7.875" stroke="#FB5607" stroke-width="2.25" stroke-linecap="round" stroke-linejoin="round"/>
</g>
</svg>
